<svg width="45" height="45" viewBox="0 0 45 45" fill="none" xmlns="http://www.w3.org/2000/svg">
<path d="M7.03126 35.8523V37.2797C6.64881 37.3096 6.29167 37.4825 6.03104 37.764C5.77041 38.0455 5.62543 38.4148 5.62501 38.7984V42.0609C5.62594 42.4672 5.78773 42.8565 6.07499 43.1438C6.36224 43.431 6.75158 43.5928 7.15782 43.5937H17.4516C17.8578 43.5928 18.2472 43.431 18.5344 43.1438C18.8217 42.8565 18.9835 42.4672 18.9844 42.0609V38.7984C18.984 38.4148 18.839 38.0455 18.5783 37.764C18.3177 37.4825 17.9606 37.3096 17.5781 37.2797V34.1859C17.5792 33.725 17.489 33.2683 17.3128 32.8424C17.1367 32.4164 16.8779 32.0295 16.5516 31.7039L8.6836 23.8359C8.38126 23.5324 8.00491 23.3131 7.59179 23.1996C7.17867 23.0862 6.74309 23.0825 6.32813 23.1891V18.0281C6.33255 17.408 6.11082 16.8074 5.70445 16.3389C5.29807 15.8704 4.7349 15.5661 4.12032 15.4828C3.77844 15.4511 3.4337 15.4906 3.10785 15.5988C2.782 15.707 2.48211 15.8816 2.2271 16.1115C1.97208 16.3414 1.76749 16.6217 1.62621 16.9346C1.48493 17.2475 1.41004 17.5864 1.40626 17.9297V28.7719C1.4052 29.2339 1.49534 29.6916 1.6715 30.1187C1.84765 30.5458 2.10637 30.934 2.43282 31.2609L7.03126 35.8523ZM2.81251 17.9297C2.81395 17.7822 2.84607 17.6366 2.90683 17.5022C2.96759 17.3677 3.05566 17.2474 3.16544 17.1489C3.27523 17.0503 3.40431 16.9757 3.5445 16.9298C3.68468 16.8838 3.83289 16.8676 3.9797 16.882C4.24906 16.9262 4.49315 17.0669 4.6665 17.2777C4.83984 17.4886 4.93061 17.7553 4.92188 18.0281V24.1945C4.58707 24.6605 4.4306 25.2312 4.48092 25.8028C4.53125 26.3745 4.78502 26.909 5.1961 27.3094L8.11407 30.2273C8.24581 30.3583 8.42402 30.4318 8.60978 30.4318C8.79553 30.4318 8.97374 30.3583 9.10548 30.2273C9.23721 30.0946 9.31113 29.9151 9.31113 29.7281C9.31113 29.5411 9.23721 29.3617 9.10548 29.2289L6.2086 26.332C6.10373 26.2382 6.01982 26.1234 5.96238 25.995C5.90493 25.8665 5.87524 25.7274 5.87524 25.5867C5.87524 25.446 5.90493 25.3069 5.96238 25.1785C6.01982 25.05 6.10373 24.9352 6.2086 24.8414C6.30448 24.7417 6.41941 24.6622 6.54657 24.6076C6.67374 24.5531 6.81056 24.5247 6.94891 24.524C7.08727 24.5234 7.22435 24.5505 7.35203 24.6038C7.4797 24.6571 7.59538 24.7355 7.6922 24.8344L15.5531 32.6953C15.9479 33.0912 16.1702 33.6269 16.1719 34.1859V37.2656H8.43751V35.5641C8.43612 35.3777 8.36312 35.1989 8.2336 35.0648L3.43126 30.2625C3.03556 29.8673 2.813 29.3311 2.81251 28.7719V17.9297ZM40.8797 15.4828C40.2651 15.5661 39.702 15.8704 39.2956 16.3389C38.8892 16.8074 38.6675 17.408 38.6719 18.0281V23.1891C38.2569 23.0825 37.8213 23.0862 37.4082 23.1996C36.9951 23.3131 36.6188 23.5324 36.3164 23.8359L28.4484 31.7039C28.1221 32.0295 27.8634 32.4164 27.6872 32.8424C27.511 33.2683 27.4208 33.725 27.4219 34.1859V37.2797C27.0394 37.3096 26.6823 37.4825 26.4217 37.764C26.161 38.0455 26.0161 38.4148 26.0156 38.7984V42.0609C26.0166 42.4672 26.1784 42.8565 26.4656 43.1438C26.7529 43.431 27.1422 43.5928 27.5484 43.5937H37.8422C38.2484 43.5928 38.6378 43.431 38.925 43.1438C39.2123 42.8565 39.3741 42.4672 39.375 42.0609V38.7984C39.3746 38.4148 39.2296 38.0455 38.969 37.764C38.7083 37.4825 38.3512 37.3096 37.9688 37.2797V35.8523L42.5672 31.2609C42.8936 30.934 43.1524 30.5458 43.3285 30.1187C43.5047 29.6916 43.5948 29.2339 43.5938 28.7719V17.9297C43.59 17.5864 43.5151 17.2475 43.3738 16.9346C43.2325 16.6217 43.0279 16.3414 42.7729 16.1115C42.5179 15.8816 42.218 15.707 41.8922 15.5988C41.5663 15.4906 41.2216 15.4511 40.8797 15.4828ZM42.1875 28.7719C42.187 29.3311 41.9645 29.8673 41.5688 30.2625L36.7664 35.0648C36.6369 35.1989 36.5639 35.3777 36.5625 35.5641V37.2656H28.8281V34.1859C28.8298 33.6269 29.0522 33.0912 29.4469 32.6953L37.3078 24.8344C37.4046 24.7355 37.5203 24.6571 37.648 24.6038C37.7757 24.5505 37.9127 24.5234 38.0511 24.524C38.1895 24.5247 38.3263 24.5531 38.4534 24.6076C38.5806 24.6622 38.6955 24.7417 38.7914 24.8414C38.8963 24.9352 38.9802 25.05 39.0376 25.1785C39.0951 25.3069 39.1248 25.446 39.1248 25.5867C39.1248 25.7274 39.0951 25.8665 39.0376 25.995C38.9802 26.1234 38.8963 26.2382 38.7914 26.332L35.8945 29.2289C35.7628 29.3617 35.6889 29.5411 35.6889 29.7281C35.6889 29.9151 35.7628 30.0946 35.8945 30.2273C36.0263 30.3583 36.2045 30.4318 36.3902 30.4318C36.576 30.4318 36.7542 30.3583 36.8859 30.2273L39.8039 27.3094C40.215 26.909 40.4688 26.3745 40.5191 25.8028C40.5694 25.2312 40.4129 24.6605 40.0781 24.1945V18.0281C40.0694 17.7553 40.1602 17.4886 40.3335 17.2777C40.5069 17.0669 40.751 16.9262 41.0203 16.882C41.1671 16.8676 41.3153 16.8838 41.4555 16.9298C41.5957 16.9757 41.7248 17.0503 41.8346 17.1489C41.9444 17.2474 42.0324 17.3677 42.0932 17.5022C42.1539 17.6366 42.1861 17.7822 42.1875 17.9297V28.7719ZM10.3043 19.7079C10.4024 19.8591 10.5549 19.9668 10.7301 20.0088C10.9054 20.0508 11.0901 20.0239 11.2461 19.9337C11.4021 19.8435 11.5175 19.6968 11.5685 19.5239C11.6195 19.351 11.6021 19.1652 11.52 19.0048C10.5815 17.3778 9.90073 15.6153 9.50204 13.7798C9.46176 13.5977 9.35079 13.4391 9.19355 13.3388C9.0363 13.2385 8.84566 13.2048 8.66356 13.2451C8.48147 13.2854 8.32283 13.3964 8.22255 13.5536C8.12227 13.7109 8.08856 13.9015 8.12884 14.0836C8.55901 16.0595 9.29288 17.9568 10.3043 19.7079Z" fill="#056FB4"/>
<path d="M7.03126 35.8523V37.2797C6.64881 37.3096 6.29167 37.4825 6.03104 37.764C5.77041 38.0455 5.62543 38.4148 5.62501 38.7984V42.0609C5.62594 42.4672 5.78773 42.8565 6.07499 43.1438C6.36224 43.431 6.75158 43.5928 7.15782 43.5937H17.4516C17.8578 43.5928 18.2472 43.431 18.5344 43.1438C18.8217 42.8565 18.9835 42.4672 18.9844 42.0609V38.7984C18.984 38.4148 18.839 38.0455 18.5783 37.764C18.3177 37.4825 17.9606 37.3096 17.5781 37.2797V34.1859C17.5792 33.725 17.489 33.2683 17.3128 32.8424C17.1367 32.4164 16.8779 32.0295 16.5516 31.7039L8.6836 23.8359C8.38126 23.5324 8.00491 23.3131 7.59179 23.1996C7.17867 23.0862 6.74309 23.0825 6.32813 23.1891V18.0281C6.33255 17.408 6.11082 16.8074 5.70445 16.3389C5.29807 15.8704 4.7349 15.5661 4.12032 15.4828C3.77844 15.4511 3.4337 15.4906 3.10785 15.5988C2.782 15.707 2.48211 15.8816 2.2271 16.1115C1.97208 16.3414 1.76749 16.6217 1.62621 16.9346C1.48493 17.2475 1.41004 17.5864 1.40626 17.9297V28.7719C1.4052 29.2339 1.49534 29.6916 1.6715 30.1187C1.84765 30.5458 2.10637 30.934 2.43282 31.2609L7.03126 35.8523ZM2.81251 17.9297C2.81395 17.7822 2.84607 17.6366 2.90683 17.5022C2.96759 17.3677 3.05566 17.2474 3.16544 17.1489C3.27523 17.0503 3.40431 16.9757 3.5445 16.9298C3.68468 16.8838 3.83289 16.8676 3.9797 16.882C4.24906 16.9262 4.49315 17.0669 4.6665 17.2777C4.83984 17.4886 4.93061 17.7553 4.92188 18.0281V24.1945C4.58707 24.6605 4.4306 25.2312 4.48092 25.8028C4.53125 26.3745 4.78502 26.909 5.1961 27.3094L8.11407 30.2273C8.24581 30.3583 8.42402 30.4318 8.60978 30.4318C8.79553 30.4318 8.97374 30.3583 9.10548 30.2273C9.23721 30.0946 9.31113 29.9151 9.31113 29.7281C9.31113 29.5411 9.23721 29.3617 9.10548 29.2289L6.2086 26.332C6.10373 26.2382 6.01982 26.1234 5.96238 25.995C5.90493 25.8665 5.87524 25.7274 5.87524 25.5867C5.87524 25.446 5.90493 25.3069 5.96238 25.1785C6.01982 25.05 6.10373 24.9352 6.2086 24.8414C6.30448 24.7417 6.41941 24.6622 6.54657 24.6076C6.67374 24.5531 6.81056 24.5247 6.94891 24.524C7.08727 24.5234 7.22435 24.5505 7.35203 24.6038C7.4797 24.6571 7.59538 24.7355 7.6922 24.8344L15.5531 32.6953C15.9479 33.0912 16.1702 33.6269 16.1719 34.1859V37.2656H8.43751V35.5641C8.43612 35.3777 8.36312 35.1989 8.2336 35.0648L3.43126 30.2625C3.03556 29.8673 2.813 29.3311 2.81251 28.7719V17.9297ZM40.8797 15.4828C40.2651 15.5661 39.702 15.8704 39.2956 16.3389C38.8892 16.8074 38.6675 17.408 38.6719 18.0281V23.1891C38.2569 23.0825 37.8213 23.0862 37.4082 23.1996C36.9951 23.3131 36.6188 23.5324 36.3164 23.8359L28.4484 31.7039C28.1221 32.0295 27.8634 32.4164 27.6872 32.8424C27.511 33.2683 27.4208 33.725 27.4219 34.1859V37.2797C27.0394 37.3096 26.6823 37.4825 26.4217 37.764C26.161 38.0455 26.0161 38.4148 26.0156 38.7984V42.0609C26.0166 42.4672 26.1784 42.8565 26.4656 43.1438C26.7529 43.431 27.1422 43.5928 27.5484 43.5937H37.8422C38.2484 43.5928 38.6378 43.431 38.925 43.1438C39.2123 42.8565 39.3741 42.4672 39.375 42.0609V38.7984C39.3746 38.4148 39.2296 38.0455 38.969 37.764C38.7083 37.4825 38.3512 37.3096 37.9688 37.2797V35.8523L42.5672 31.2609C42.8936 30.934 43.1524 30.5458 43.3285 30.1187C43.5047 29.6916 43.5948 29.2339 43.5938 28.7719V17.9297C43.59 17.5864 43.5151 17.2475 43.3738 16.9346C43.2325 16.6217 43.0279 16.3414 42.7729 16.1115C42.5179 15.8816 42.218 15.707 41.8922 15.5988C41.5663 15.4906 41.2216 15.4511 40.8797 15.4828ZM42.1875 28.7719C42.187 29.3311 41.9645 29.8673 41.5688 30.2625L36.7664 35.0648C36.6369 35.1989 36.5639 35.3777 36.5625 35.5641V37.2656H28.8281V34.1859C28.8298 33.6269 29.0522 33.0912 29.4469 32.6953L37.3078 24.8344C37.4046 24.7355 37.5203 24.6571 37.648 24.6038C37.7757 24.5505 37.9127 24.5234 38.0511 24.524C38.1895 24.5247 38.3263 24.5531 38.4534 24.6076C38.5806 24.6622 38.6955 24.7417 38.7914 24.8414C38.8963 24.9352 38.9802 25.05 39.0376 25.1785C39.0951 25.3069 39.1248 25.446 39.1248 25.5867C39.1248 25.7274 39.0951 25.8665 39.0376 25.995C38.9802 26.1234 38.8963 26.2382 38.7914 26.332L35.8945 29.2289C35.7628 29.3617 35.6889 29.5411 35.6889 29.7281C35.6889 29.9151 35.7628 30.0946 35.8945 30.2273C36.0263 30.3583 36.2045 30.4318 36.3902 30.4318C36.576 30.4318 36.7542 30.3583 36.8859 30.2273L39.8039 27.3094C40.215 26.909 40.4688 26.3745 40.5191 25.8028C40.5694 25.2312 40.4129 24.6605 40.0781 24.1945V18.0281C40.0694 17.7553 40.1602 17.4886 40.3335 17.2777C40.5069 17.0669 40.751 16.9262 41.0203 16.882C41.1671 16.8676 41.3153 16.8838 41.4555 16.9298C41.5957 16.9757 41.7248 17.0503 41.8346 17.1489C41.9444 17.2474 42.0324 17.3677 42.0932 17.5022C42.1539 17.6366 42.1861 17.7822 42.1875 17.9297V28.7719ZM10.3043 19.7079C10.4024 19.8591 10.5549 19.9668 10.7301 20.0088C10.9054 20.0508 11.0901 20.0239 11.2461 19.9337C11.4021 19.8435 11.5175 19.6968 11.5685 19.5239C11.6195 19.351 11.6021 19.1652 11.52 19.0048C10.5815 17.3778 9.90073 15.6153 9.50204 13.7798C9.46176 13.5977 9.35079 13.4391 9.19355 13.3388C9.0363 13.2385 8.84566 13.2048 8.66356 13.2451C8.48147 13.2854 8.32283 13.3964 8.22255 13.5536C8.12227 13.7109 8.08856 13.9015 8.12884 14.0836C8.55901 16.0595 9.29288 17.9568 10.3043 19.7079Z" fill="url(#paint0_linear_470_177)"/>
<path d="M8.4375 11.9531C8.82583 11.9531 9.14062 11.6383 9.14062 11.25C9.14062 10.8617 8.82583 10.5469 8.4375 10.5469C8.04917 10.5469 7.73438 10.8617 7.73438 11.25C7.73438 11.6383 8.04917 11.9531 8.4375 11.9531Z" fill="#056FB4"/>
<path d="M8.4375 11.9531C8.82583 11.9531 9.14062 11.6383 9.14062 11.25C9.14062 10.8617 8.82583 10.5469 8.4375 10.5469C8.04917 10.5469 7.73438 10.8617 7.73438 11.25C7.73438 11.6383 8.04917 11.9531 8.4375 11.9531Z" fill="url(#paint1_linear_470_177)"/>
<path d="M35.2534 17.666C35.3936 17.6658 35.5306 17.6238 35.6468 17.5452C35.7629 17.4667 35.8529 17.3552 35.9052 17.2251C36.6552 15.3344 37.127 13.345 37.3058 11.3188C37.3245 11.1332 37.2686 10.9478 37.1505 10.8033C37.0325 10.6588 36.8618 10.5672 36.6762 10.5486C36.4905 10.5299 36.3051 10.5858 36.1606 10.7039C36.0162 10.8219 35.9246 10.9926 35.9059 11.1782C35.7413 13.0717 35.3016 14.931 34.6009 16.6977C34.5315 16.8706 34.5335 17.064 34.6066 17.2354C34.6796 17.4067 34.8177 17.5421 34.9904 17.6118C35.0738 17.6468 35.1631 17.6652 35.2534 17.666Z" fill="#056FB4"/>
<path d="M35.2534 17.666C35.3936 17.6658 35.5306 17.6238 35.6468 17.5452C35.7629 17.4667 35.8529 17.3552 35.9052 17.2251C36.6552 15.3344 37.127 13.345 37.3058 11.3188C37.3245 11.1332 37.2686 10.9478 37.1505 10.8033C37.0325 10.6588 36.8618 10.5672 36.6762 10.5486C36.4905 10.5299 36.3051 10.5858 36.1606 10.7039C36.0162 10.8219 35.9246 10.9926 35.9059 11.1782C35.7413 13.0717 35.3016 14.931 34.6009 16.6977C34.5315 16.8706 34.5335 17.064 34.6066 17.2354C34.6796 17.4067 34.8177 17.5421 34.9904 17.6118C35.0738 17.6468 35.1631 17.6652 35.2534 17.666Z" fill="url(#paint2_linear_470_177)"/>
<path d="M34.0874 20.0573C34.4757 20.0573 34.7905 19.7425 34.7905 19.3541C34.7905 18.9658 34.4757 18.651 34.0874 18.651C33.6991 18.651 33.3843 18.9658 33.3843 19.3541C33.3843 19.7425 33.6991 20.0573 34.0874 20.0573Z" fill="#056FB4"/>
<path d="M34.0874 20.0573C34.4757 20.0573 34.7905 19.7425 34.7905 19.3541C34.7905 18.9658 34.4757 18.651 34.0874 18.651C33.6991 18.651 33.3843 18.9658 33.3843 19.3541C33.3843 19.7425 33.6991 20.0573 34.0874 20.0573Z" fill="url(#paint3_linear_470_177)"/>
<path d="M32.7797 4.85855C28.5961 5.86402 24.8836 3.04449 23.4843 1.7859C23.2145 1.5428 22.8645 1.40768 22.5013 1.40638C22.1381 1.40508 21.7872 1.5377 21.5156 1.77887C20.1023 3.03746 16.3687 5.86402 12.2273 4.85855C12.0286 4.81294 11.8224 4.81074 11.6228 4.8521C11.4232 4.89347 11.2348 4.97743 11.0706 5.09824C10.9064 5.21906 10.7702 5.37389 10.6713 5.55216C10.5724 5.73043 10.5132 5.92794 10.4976 6.13121C10.0617 12.3539 10.7718 21.1711 21.9164 25.8961C22.101 25.9743 22.2994 26.0147 22.5 26.0147C22.7005 26.0147 22.899 25.9743 23.0836 25.8961C34.2281 21.1711 34.9382 12.3539 34.5023 6.13121C34.4917 5.92671 34.4359 5.72712 34.3389 5.54675C34.2419 5.36639 34.1062 5.20974 33.9415 5.08807C33.7768 4.96639 33.5872 4.8827 33.3863 4.84302C33.1854 4.80334 32.9782 4.80864 32.7797 4.85855ZM28.2375 12.6562L22.5907 18.007C22.2772 18.3041 21.8602 18.467 21.4284 18.4613C20.9966 18.4555 20.5842 18.2814 20.2788 17.9761L17.5275 15.2247C17.2166 14.9139 17.042 14.4922 17.042 14.0526C17.042 13.613 17.2166 13.1914 17.5275 12.8805C17.8383 12.5696 18.2599 12.395 18.6996 12.395C19.1392 12.395 19.5608 12.5696 19.8717 12.8805L21.4818 14.4914L25.9572 10.2501C26.1152 10.1003 26.3011 9.983 26.5045 9.90507C26.7078 9.82713 26.9244 9.79004 27.1421 9.79592C27.3598 9.8018 27.5741 9.85053 27.7729 9.93932C27.9718 10.0281 28.1511 10.1552 28.3007 10.3134C28.4505 10.4713 28.5677 10.6572 28.6455 10.8605C28.7234 11.0637 28.7605 11.2803 28.7546 11.4979C28.7487 11.7155 28.7 11.9298 28.6113 12.1285C28.5226 12.3273 28.3955 12.5066 28.2375 12.6562Z" fill="#056FB4"/>
<path d="M32.7797 4.85855C28.5961 5.86402 24.8836 3.04449 23.4843 1.7859C23.2145 1.5428 22.8645 1.40768 22.5013 1.40638C22.1381 1.40508 21.7872 1.5377 21.5156 1.77887C20.1023 3.03746 16.3687 5.86402 12.2273 4.85855C12.0286 4.81294 11.8224 4.81074 11.6228 4.8521C11.4232 4.89347 11.2348 4.97743 11.0706 5.09824C10.9064 5.21906 10.7702 5.37389 10.6713 5.55216C10.5724 5.73043 10.5132 5.92794 10.4976 6.13121C10.0617 12.3539 10.7718 21.1711 21.9164 25.8961C22.101 25.9743 22.2994 26.0147 22.5 26.0147C22.7005 26.0147 22.899 25.9743 23.0836 25.8961C34.2281 21.1711 34.9382 12.3539 34.5023 6.13121C34.4917 5.92671 34.4359 5.72712 34.3389 5.54675C34.2419 5.36639 34.1062 5.20974 33.9415 5.08807C33.7768 4.96639 33.5872 4.8827 33.3863 4.84302C33.1854 4.80334 32.9782 4.80864 32.7797 4.85855ZM28.2375 12.6562L22.5907 18.007C22.2772 18.3041 21.8602 18.467 21.4284 18.4613C20.9966 18.4555 20.5842 18.2814 20.2788 17.9761L17.5275 15.2247C17.2166 14.9139 17.042 14.4922 17.042 14.0526C17.042 13.613 17.2166 13.1914 17.5275 12.8805C17.8383 12.5696 18.2599 12.395 18.6996 12.395C19.1392 12.395 19.5608 12.5696 19.8717 12.8805L21.4818 14.4914L25.9572 10.2501C26.1152 10.1003 26.3011 9.983 26.5045 9.90507C26.7078 9.82713 26.9244 9.79004 27.1421 9.79592C27.3598 9.8018 27.5741 9.85053 27.7729 9.93932C27.9718 10.0281 28.1511 10.1552 28.3007 10.3134C28.4505 10.4713 28.5677 10.6572 28.6455 10.8605C28.7234 11.0637 28.7605 11.2803 28.7546 11.4979C28.7487 11.7155 28.7 11.9298 28.6113 12.1285C28.5226 12.3273 28.3955 12.5066 28.2375 12.6562Z" fill="url(#paint4_linear_470_177)"/>
<defs>
<linearGradient id="paint0_linear_470_177" x1="58.8462" y1="24.3831" x2="1.37319" y2="24.8968" gradientUnits="userSpaceOnUse">
<stop stop-color="#7DB9D6"/>
<stop offset="1" stop-color="#056FB4"/>
</linearGradient>
<linearGradient id="paint1_linear_470_177" x1="9.64904" y1="11.0635" x2="7.7332" y2="11.0758" gradientUnits="userSpaceOnUse">
<stop stop-color="#7DB9D6"/>
<stop offset="1" stop-color="#056FB4"/>
</linearGradient>
<linearGradient id="paint2_linear_470_177" x1="38.3069" y1="13.1609" x2="34.5479" y2="13.1703" gradientUnits="userSpaceOnUse">
<stop stop-color="#7DB9D6"/>
<stop offset="1" stop-color="#056FB4"/>
</linearGradient>
<linearGradient id="paint3_linear_470_177" x1="35.2989" y1="19.1676" x2="33.3831" y2="19.1799" gradientUnits="userSpaceOnUse">
<stop stop-color="#7DB9D6"/>
<stop offset="1" stop-color="#056FB4"/>
</linearGradient>
<linearGradient id="paint4_linear_470_177" x1="43.3388" y1="10.4462" x2="10.3857" y2="10.6545" gradientUnits="userSpaceOnUse">
<stop stop-color="#7DB9D6"/>
<stop offset="1" stop-color="#056FB4"/>
</linearGradient>
</defs>
</svg>
