<svg width="68" height="68" viewBox="0 0 68 68" fill="none" xmlns="http://www.w3.org/2000/svg">
<path d="M34 48.7871C40.4783 48.7871 45.73 43.5354 45.73 37.0571C45.73 30.5788 40.4783 25.3271 34 25.3271C27.5217 25.3271 22.27 30.5788 22.27 37.0571C22.27 43.5354 27.5217 48.7871 34 48.7871Z" stroke="#056FB4" stroke-width="3" stroke-linecap="round" stroke-linejoin="round"/>
<path d="M34 20.1945C37.6444 20.1945 40.5988 17.2401 40.5988 13.5957C40.5988 9.95122 37.6444 6.99683 34 6.99683C30.3556 6.99683 27.4012 9.95122 27.4012 13.5957C27.4012 17.2401 30.3556 20.1945 34 20.1945Z" stroke="#056FB4" stroke-width="3" stroke-linecap="round" stroke-linejoin="round"/>
<path d="M28.4863 26.7041C28.5005 26.588 28.5005 26.4704 28.5005 26.3528V22.9953H39.4995V26.3528C39.4995 26.4704 39.4995 26.588 39.5137 26.7055M40.5988 13.5957C42.5432 13.5965 44.4077 14.3693 45.7825 15.7443C47.1572 17.1193 47.9297 18.984 47.9301 20.9284V26.3542C47.9339 27.4652 47.4981 28.5327 46.7178 29.3236C45.9375 30.1145 44.8761 30.5647 43.7651 30.5759M24.2349 30.5759C23.1251 30.561 22.0658 30.1096 21.2863 29.3195C20.5068 28.5294 20.0698 27.4641 20.0699 26.3542V20.9284C20.0703 18.984 20.8428 17.1193 22.2175 15.7443C23.5923 14.3693 25.4568 13.5965 27.4012 13.5957" stroke="#056FB4" stroke-width="3" stroke-linecap="round" stroke-linejoin="round"/>
<path d="M13.6822 55.3874C17.3266 55.3874 20.281 52.433 20.281 48.7885C20.281 45.1441 17.3266 42.1897 13.6822 42.1897C10.0377 42.1897 7.08334 45.1441 7.08334 48.7885C7.08334 52.433 10.0377 55.3874 13.6822 55.3874Z" stroke="#056FB4" stroke-width="3" stroke-linecap="round" stroke-linejoin="round"/>
<path d="M27.7908 47.0093C27.6836 47.0571 27.5795 47.1115 27.4791 47.1722L24.5707 48.851L19.0726 39.3267L21.981 37.648C22.0816 37.5885 22.1836 37.5304 22.2785 37.4595M10.3828 43.0738C9.41094 41.3897 9.14767 39.3886 9.65082 37.5104C10.154 35.6322 11.3823 34.0307 13.0659 33.058L17.765 30.345C18.7253 29.7861 19.8677 29.6297 20.9428 29.91C22.018 30.1903 22.9387 30.8844 23.5039 31.841M33.2704 48.756C33.8122 49.7248 33.9507 50.868 33.6559 51.9381C33.361 53.0082 32.6566 53.9191 31.6951 54.4737L26.996 57.1866C25.3119 58.1584 23.3108 58.4217 21.4326 57.9185C19.5544 57.4154 17.9529 56.187 16.9802 54.5035" stroke="#056FB4" stroke-width="3" stroke-linecap="round" stroke-linejoin="round"/>
<path d="M54.3178 55.3874C57.9623 55.3874 60.9167 52.433 60.9167 48.7885C60.9167 45.1441 57.9623 42.1897 54.3178 42.1897C50.6734 42.1897 47.719 45.1441 47.719 48.7885C47.719 52.433 50.6734 55.3874 54.3178 55.3874Z" stroke="#056FB4" stroke-width="3" stroke-linecap="round" stroke-linejoin="round"/>
<path d="M45.7215 37.4595C45.8164 37.5303 45.9184 37.5884 46.019 37.6479L48.9274 39.3266L43.4293 48.8509L40.5209 47.1721C40.4208 47.1107 40.3169 47.056 40.2092 47.0078M51.0184 54.5034C50.0456 56.1869 48.4441 57.4153 46.566 57.9185C44.6878 58.4216 42.6867 58.1584 41.0026 57.1865L36.3049 54.4736C35.3406 53.9217 34.6337 53.0107 34.3386 51.9395C34.0434 50.8684 34.184 49.7239 34.7296 48.756M44.4961 31.841C45.0641 30.8875 45.9848 30.196 47.0589 29.9163C48.133 29.6366 49.274 29.7911 50.235 30.3464L54.9341 33.0579C56.6176 34.0306 57.846 35.6321 58.3492 37.5103C58.8523 39.3885 58.589 41.3896 57.6172 43.0737M30.0957 42.3583C30.9754 43.095 31.8297 43.4321 33.9632 43.4321H34.3315C35.2792 43.4318 36.188 43.055 36.8579 42.3848C37.5279 41.7145 37.9043 40.8056 37.9043 39.8579C37.9043 38.9099 37.5277 38.0008 36.8574 37.3305C36.1871 36.6602 35.278 36.2836 34.3301 36.2836H30.0942V30.6821H37.9043" stroke="#056FB4" stroke-width="3" stroke-linecap="round" stroke-linejoin="round"/>
</svg>
