<svg width="364" height="364" viewBox="0 0 364 364" fill="none" xmlns="http://www.w3.org/2000/svg">
<path d="M65.8675 173.922C65.8373 173.934 65.8071 173.94 65.7768 173.94C65.6679 173.94 65.5832 173.879 65.5288 173.795C65.4502 173.777 65.3655 173.771 65.2808 173.771H64.44V177.188C64.44 177.491 64.4098 177.787 64.3614 178.071C64.3553 178.102 64.3553 178.132 64.3493 178.162C64.3432 178.204 64.3372 178.247 64.3311 178.289C64.7545 178.198 65.1477 177.999 65.4925 177.708C66.1821 177.134 66.5813 176.238 66.5813 175.252V175.071C66.5813 174.569 66.291 174.139 65.8675 173.922Z" fill="#056FB4"/>
<path d="M59.4799 163.693H50.6182C49.1967 163.693 48.0353 164.854 48.0353 166.276V173.19C48.1018 173.184 48.1684 173.172 48.2349 173.172H49.0757V171.502C49.0757 169.893 50.3823 168.587 51.9913 168.587H61.5184C63.1274 168.587 64.434 169.893 64.434 171.502V173.166H65.2748C65.3413 173.166 65.4079 173.178 65.4744 173.184V169.675C65.4744 166.379 62.7887 163.693 59.4799 163.693Z" fill="#056FB4"/>
<path d="M46.9344 175.252C46.9344 176.238 47.3276 177.134 48.0171 177.708C48.3619 177.999 48.7551 178.192 49.1846 178.289C49.1785 178.271 49.1785 178.253 49.1785 178.241C49.1544 178.12 49.1423 178.005 49.1241 177.884C49.1181 177.823 49.106 177.769 49.0999 177.708C49.0818 177.539 49.0757 177.364 49.0757 177.188V173.771H48.2349C47.5151 173.771 46.9344 174.357 46.9344 175.071V175.252Z" fill="#056FB4"/>
<path d="M60.8409 184.997L60.6171 183.987C59.6493 185.118 58.258 185.772 56.7579 185.772C55.3847 185.772 54.0963 185.227 53.1527 184.266C53.1043 184.61 53.0801 184.883 53.062 185.058V185.076L56.7639 188.681L60.8409 184.997Z" fill="#056FB4"/>
<path d="M42.3553 201.275H53.6971L55.3182 192.135L54.9129 191.27L54.5439 191.621C54.3443 191.814 54.0721 191.923 53.7939 191.923C53.7697 191.923 53.7455 191.923 53.7213 191.923C53.4128 191.905 53.1285 191.748 52.9349 191.506L49.3902 186.993L45.1136 188.869C42.44 190.042 40.716 192.685 40.716 195.601V199.624C40.7039 200.537 41.4419 201.275 42.3553 201.275Z" fill="#056FB4"/>
<path d="M56.7578 185.167C58.137 185.167 59.4133 184.55 60.2662 183.467L60.5142 183.152C60.5142 183.146 60.5203 183.146 60.5203 183.14L62.7281 180.352C63.1515 179.813 63.46 179.196 63.6415 178.543C63.696 178.362 63.7322 178.174 63.7625 177.981C63.7746 177.902 63.7867 177.817 63.7927 177.739C63.8048 177.605 63.8169 177.472 63.823 177.333C63.823 177.279 63.829 177.23 63.829 177.176V171.502C63.829 170.226 62.7947 169.191 61.5183 169.191H51.9912C50.7149 169.191 49.6805 170.226 49.6805 171.502V173.468V177.188C49.6805 177.406 49.6987 177.612 49.7229 177.817C49.7289 177.86 49.735 177.896 49.741 177.938C49.7713 178.15 49.8197 178.362 49.8802 178.561V178.579C50.0616 179.221 50.3641 179.832 50.7815 180.358L53.2434 183.473C54.1023 184.55 55.3786 185.167 56.7578 185.167ZM59.4012 174.557H61.234C61.4034 174.557 61.5365 174.69 61.5365 174.859C61.5365 175.029 61.4034 175.162 61.234 175.162H59.4012C59.2318 175.162 59.0988 175.029 59.0988 174.859C59.0988 174.69 59.2318 174.557 59.4012 174.557ZM55.0339 180.781C55.1911 180.721 55.3666 180.793 55.427 180.945C55.6509 181.483 56.1711 181.834 56.7578 181.834C57.3446 181.834 57.8648 181.483 58.0886 180.945C58.1551 180.793 58.3305 180.715 58.4818 180.781C58.639 180.848 58.7116 181.023 58.6451 181.174C58.3305 181.943 57.5865 182.439 56.7578 182.439C55.9291 182.439 55.1851 181.943 54.8705 181.174C54.804 181.023 54.8766 180.848 55.0339 180.781ZM51.9791 174.859C51.9791 174.69 52.1122 174.557 52.2816 174.557H54.1144C54.2838 174.557 54.4169 174.69 54.4169 174.859C54.4169 175.029 54.2838 175.162 54.1144 175.162H52.2816C52.1122 175.162 51.9791 175.029 51.9791 174.859Z" fill="#056FB4"/>
<path d="M59.758 191.318C59.8972 191.306 60.0181 191.24 60.1089 191.131L63.7927 186.582L61.234 185.457L57.2054 189.098L59.3891 191.185C59.4858 191.282 59.6189 191.331 59.758 191.318Z" fill="#056FB4"/>
<path d="M55.8202 191.79H57.6894L58.137 190.835L56.7578 189.516L55.3726 190.835L55.8202 191.79Z" fill="#056FB4"/>
<path d="M59.2016 201.275L57.6289 192.395H55.8868L54.308 201.275H59.2016Z" fill="#056FB4"/>
<path d="M67.8516 200.616C65.0509 199.406 63.2423 196.654 63.2423 193.599C63.2423 191.173 64.3795 189.014 66.1397 187.611L64.3613 186.83L60.5747 191.506C60.3872 191.742 60.1029 191.893 59.8004 191.917C59.7762 191.917 59.746 191.917 59.7218 191.917C59.4435 191.917 59.1713 191.808 58.9657 191.615L58.5967 191.264L58.1914 192.129L59.8125 201.269H68.8678C68.5109 201.088 68.1722 200.864 67.8516 200.616Z" fill="#056FB4"/>
<path d="M72.467 186.866C72.6787 186.866 72.8904 186.879 73.0961 186.897C72.3944 186.667 71.6564 186.546 70.9003 186.546C67.0108 186.546 63.8472 189.709 63.8472 193.599C63.8472 195.589 64.688 197.44 66.0914 198.753C65.2869 197.543 64.809 196.085 64.809 194.524C64.809 190.302 68.2448 186.866 72.467 186.866Z" fill="#056FB4"/>
<path d="M53.4007 191.137C53.4853 191.246 53.6124 191.312 53.7515 191.324C53.8906 191.337 54.0177 191.288 54.1205 191.191L54.7738 190.568L56.3163 189.098L52.6687 185.56L49.9467 186.751L53.4007 191.137Z" fill="#056FB4"/>
<path d="M79.514 194.524C79.514 190.635 76.3504 187.477 72.4669 187.477C68.5835 187.477 65.4199 190.641 65.4199 194.524C65.4199 198.408 68.5775 201.571 72.4669 201.571C76.3564 201.571 79.514 198.408 79.514 194.524ZM67.3193 194.524C67.3193 191.687 69.63 189.377 72.4609 189.377C75.2979 189.377 77.6086 191.687 77.6086 194.524C77.6086 197.361 75.2979 199.672 72.4609 199.672C69.63 199.666 67.3193 197.361 67.3193 194.524Z" fill="#056FB4"/>
<path d="M77.0036 194.524C77.0036 192.02 74.9651 189.982 72.4608 189.982C69.9566 189.982 67.9241 192.02 67.9241 194.524C67.9241 197.029 69.9626 199.067 72.4608 199.067C74.9712 199.061 77.0036 197.029 77.0036 194.524ZM70.9063 196.339C70.7732 196.103 70.7067 195.777 70.7067 195.371H71.3357C71.3539 195.692 71.4023 195.928 71.487 196.079C71.6321 196.345 71.9043 196.496 72.3036 196.527V194.597C71.7955 194.5 71.4204 194.337 71.1724 194.113C70.9305 193.889 70.8095 193.575 70.8095 193.169C70.8095 192.813 70.9426 192.486 71.2027 192.202C71.4628 191.911 71.8318 191.766 72.3096 191.76V191.288H72.6484V191.754C73.1202 191.784 73.4771 191.923 73.7311 192.171C73.9852 192.419 74.1122 192.74 74.1243 193.139H73.5073C73.4892 192.958 73.4408 192.807 73.3621 192.673C73.2109 192.438 72.975 192.311 72.6484 192.298V194.016C73.1928 194.168 73.5678 194.313 73.7614 194.446C74.082 194.67 74.2392 194.996 74.2392 195.432C74.2392 196.061 74.0336 196.502 73.6283 196.769C73.4045 196.914 73.0778 197.011 72.6484 197.059V197.755H72.3096V197.071C71.614 197.023 71.1482 196.781 70.9063 196.339Z" fill="#056FB4"/>
<path d="M73.4711 196.103C73.5497 195.964 73.5921 195.801 73.5921 195.613C73.5921 195.317 73.4832 195.093 73.2654 194.942C73.1384 194.851 72.9328 194.767 72.6364 194.688V196.545C73.0416 196.527 73.3199 196.382 73.4711 196.103Z" fill="#056FB4"/>
<path d="M71.4386 193.133C71.4386 193.369 71.5172 193.551 71.6685 193.684C71.8257 193.817 72.0314 193.907 72.2915 193.962V192.298C71.983 192.311 71.7652 192.407 71.6322 192.583C71.5051 192.752 71.4386 192.94 71.4386 193.133Z" fill="#056FB4"/>
<path d="M326.661 184.916C326.268 184.697 325.844 184.549 325.363 184.465C324.951 184.392 324.614 184.103 324.485 183.709C324.346 183.29 324.175 182.877 323.975 182.482C323.784 182.104 323.816 181.651 324.06 181.299C324.334 180.903 324.528 180.509 324.655 180.092L324.69 179.979L322.53 177.819L322.419 177.85C321.991 177.972 321.59 178.165 321.193 178.441C320.996 178.578 320.765 178.651 320.526 178.651C320.348 178.651 320.17 178.609 320.011 178.529C319.616 178.33 319.203 178.16 318.782 178.023C318.389 177.894 318.098 177.559 318.024 177.147C317.938 176.667 317.796 176.246 317.589 175.857L317.534 175.753H314.479L314.423 175.854C314.204 176.247 314.056 176.671 313.971 177.153C313.899 177.565 313.61 177.901 313.216 178.031C312.796 178.169 312.383 178.341 311.989 178.54C311.829 178.621 311.65 178.664 311.47 178.664C311.233 178.664 311.003 178.592 310.806 178.455C310.41 178.182 310.015 177.987 309.599 177.86L309.486 177.825L307.326 179.985L307.357 180.096C307.479 180.525 307.672 180.926 307.948 181.322C308.192 181.673 308.226 182.126 308.036 182.504C307.837 182.9 307.667 183.313 307.53 183.733C307.401 184.127 307.065 184.417 306.653 184.491C306.174 184.577 305.753 184.719 305.364 184.926L305.26 184.981V188.036L305.361 188.092C305.753 188.312 306.178 188.459 306.659 188.544C307.071 188.617 307.408 188.906 307.537 189.299C307.675 189.718 307.847 190.131 308.047 190.526C308.238 190.904 308.206 191.357 307.962 191.709C307.688 192.105 307.494 192.5 307.367 192.917L307.332 193.03L309.492 195.19L309.603 195.158C310.032 195.037 310.432 194.843 310.829 194.568C311.026 194.43 311.257 194.357 311.495 194.357C311.674 194.357 311.852 194.4 312.011 194.48C312.406 194.678 312.82 194.849 313.24 194.986C313.633 195.114 313.924 195.45 313.998 195.862C314.084 196.342 314.226 196.763 314.433 197.151L314.488 197.256H317.543L317.599 197.155C317.819 196.762 317.966 196.337 318.051 195.856C318.123 195.444 318.413 195.107 318.806 194.978C319.225 194.84 319.638 194.668 320.033 194.468C320.193 194.387 320.372 194.345 320.552 194.345C320.79 194.345 321.019 194.417 321.216 194.553C321.612 194.827 322.007 195.022 322.424 195.149L322.537 195.183L324.696 193.023L324.665 192.912C324.544 192.484 324.35 192.083 324.074 191.687C323.83 191.336 323.796 190.883 323.986 190.505C324.185 190.108 324.356 189.695 324.492 189.276C324.621 188.882 324.957 188.591 325.369 188.517C325.848 188.431 326.27 188.289 326.658 188.082L326.762 188.027V184.972L326.661 184.916ZM316.011 191.708C313.142 191.708 310.807 189.374 310.807 186.504C310.807 183.635 313.142 181.3 316.011 181.3C318.881 181.3 321.215 183.635 321.215 186.504C321.215 189.374 318.881 191.708 316.011 191.708ZM313.266 197.458L313.337 197.61L313.198 197.704C310.81 199.321 307.627 201.177 304.184 201.177C302.92 201.177 301.681 200.922 300.502 200.419C296.89 198.88 295.086 198.335 293.611 198.335C292.942 198.335 292.302 198.452 291.598 198.705L291.438 198.762L287.323 191.088L292.417 188.917L292.425 188.914C293.025 188.724 293.728 188.627 294.513 188.627C295.395 188.627 296.351 188.748 297.353 188.986C299.71 189.547 303.182 190.483 306.335 191.757L306.523 191.833L306.442 192.019C306.336 192.263 306.25 192.508 306.185 192.748C306.081 193.142 306.196 193.566 306.485 193.855L307.922 195.292L307.473 195.31C307.358 195.315 307.237 195.317 307.113 195.317C304.737 195.317 301.281 194.435 299.786 193.969C299.728 193.951 299.669 193.942 299.61 193.942C299.35 193.942 299.123 194.108 299.045 194.357C298.998 194.508 299.013 194.668 299.086 194.807C299.159 194.947 299.283 195.05 299.433 195.097C299.892 195.241 304.004 196.497 307.082 196.497C307.811 196.497 308.433 196.425 308.931 196.285L308.995 196.267L309.057 196.292C309.195 196.346 309.339 196.374 309.486 196.374C309.576 196.374 309.666 196.363 309.753 196.341C310.327 196.2 310.882 195.953 311.402 195.607L311.496 195.545L311.598 195.594C311.963 195.772 312.345 195.93 312.731 196.062L312.838 196.099L312.861 196.21C312.95 196.65 313.087 197.07 313.266 197.458ZM290.793 200.061C290.916 200.29 290.829 200.576 290.6 200.699L288.799 201.665C288.73 201.702 288.655 201.721 288.577 201.721C288.53 201.721 288.484 201.714 288.44 201.701C288.371 201.68 288.241 201.623 288.161 201.473L286.015 197.472L283.313 192.336C283.282 192.276 283.239 192.221 283.187 192.174L283.162 192.151L283.01 191.869C282.93 191.719 282.953 191.579 282.975 191.51C282.996 191.44 283.053 191.31 283.203 191.23L285.005 190.264C285.074 190.227 285.148 190.208 285.226 190.208C285.273 190.208 285.319 190.215 285.364 190.228C285.434 190.25 285.563 190.307 285.643 190.457L290.793 200.061L290.793 200.061ZM284.969 198.024L286.697 201.309L284.627 202.363L284.61 202.372C284.468 202.45 284.309 202.492 284.148 202.492C284.056 202.492 283.964 202.478 283.875 202.452C283.631 202.38 283.423 202.212 283.304 201.991L280.058 195.767C279.814 195.312 279.98 194.734 280.437 194.474L282.502 193.422L284.969 198.024H284.969ZM295.545 167.266C295.545 163.795 298.369 160.971 301.84 160.971C305.312 160.971 308.136 163.795 308.136 167.266C308.136 170.738 305.312 173.562 301.84 173.562C298.369 173.562 295.545 170.738 295.545 167.266ZM291.977 187.819L290.632 188.392V181.807C290.632 176.398 294.528 174.37 297.797 173.622L297.875 173.604L297.944 173.646C299.116 174.364 300.463 174.744 301.84 174.744C303.268 174.744 304.66 174.336 305.863 173.565L305.931 173.521L306.01 173.538C308.714 174.106 310.67 175.291 311.825 177.06L311.949 177.25L311.701 177.366C311.658 177.386 311.615 177.406 311.572 177.427L311.471 177.477L311.377 177.414C310.863 177.074 310.321 176.826 309.767 176.679C309.672 176.653 309.574 176.64 309.476 176.64C309.172 176.64 308.875 176.763 308.661 176.978L306.479 179.16C306.196 179.443 306.079 179.859 306.174 180.246C306.315 180.821 306.562 181.376 306.908 181.896L306.97 181.989L306.921 182.091C306.742 182.458 306.585 182.84 306.453 183.225L306.416 183.331L306.306 183.354C305.701 183.476 305.144 183.684 304.648 183.971C304.296 184.176 304.077 184.557 304.077 184.966V188.051C304.077 188.452 304.289 188.829 304.631 189.036C305.136 189.342 305.703 189.559 306.315 189.682L306.426 189.705L306.462 189.811C306.508 189.942 306.561 190.083 306.624 190.242L306.793 190.664L306.369 190.498C303.246 189.274 299.891 188.374 297.626 187.836C296.527 187.574 295.477 187.442 294.508 187.442C293.592 187.442 292.757 187.563 292.026 187.801C292.009 187.806 291.993 187.812 291.977 187.819Z" fill="#7DB9D6"/>
<circle cx="59.6585" cy="182.182" r="34.2345" stroke="#056FB4" stroke-width="0.900907"/>
<circle cx="302.903" cy="182.182" r="34.2345" stroke="#056FB4" stroke-width="0.900907"/>
<path d="M228.512 61.2008C256.167 72.0381 278.764 91.5918 293.32 116.974L270.035 107.849C267.225 106.748 264.056 108.128 262.957 110.932C261.858 113.736 263.246 116.902 266.056 118.003L301.762 131.995C303.25 132.935 305.163 133.143 306.893 132.38C306.91 132.373 306.925 132.363 306.942 132.356C308.249 131.804 309.341 130.75 309.899 129.327L324.126 93.02C325.225 90.216 323.838 87.0504 321.028 85.9491C318.217 84.8478 315.048 86.228 313.95 89.032L304.165 114C288.44 85.2706 263.373 63.1488 232.491 51.0468C197.695 37.4113 159.685 38.1111 125.462 53.0174C91.2393 67.9237 64.8995 95.2527 51.2948 129.97C50.196 132.774 51.5834 135.94 54.3938 137.041C57.2041 138.142 60.373 136.762 61.4718 133.958C74.0137 101.953 98.2957 76.7592 129.845 63.0172C161.393 49.2756 196.434 48.6304 228.512 61.2008Z" fill="url(#paint0_linear_14_278)"/>
<path d="M309.027 225.213C306.215 224.111 303.04 225.505 301.934 228.326C289.315 260.528 264.955 285.905 233.342 299.783C201.73 313.66 166.646 314.377 134.555 301.801C106.788 290.92 84.138 271.202 69.6187 245.574L92.9596 254.721C95.7711 255.822 98.9464 254.428 100.052 251.607C101.158 248.786 99.7747 245.606 96.9631 244.504L60.5582 230.238C59.1247 229.676 57.5984 229.766 56.298 230.361C56.272 230.372 56.2454 230.379 56.2199 230.391C54.4981 231.155 53.3629 232.7 53.0449 234.426L39.003 270.259C37.8974 273.08 39.2803 276.26 42.0918 277.362C44.9033 278.464 48.0786 277.07 49.1842 274.248L59.0408 249.096C74.7376 277.837 99.7402 299.944 130.551 312.018C165.362 325.659 203.418 324.881 237.711 309.828C272.003 294.775 298.427 267.247 312.115 232.316C313.221 229.495 311.838 226.315 309.027 225.213Z" fill="url(#paint1_linear_14_278)"/>
<path d="M129.884 164.419C127.902 164.419 126.207 164.072 124.8 163.379C123.412 162.685 122.292 161.783 121.44 160.673C120.588 159.563 119.964 158.364 119.567 157.076C119.171 155.768 118.973 154.509 118.973 153.3V152.646C118.973 151.338 119.171 150.03 119.567 148.722C119.983 147.414 120.618 146.225 121.47 145.154C122.322 144.084 123.432 143.222 124.8 142.568C126.167 141.914 127.802 141.587 129.705 141.587C131.648 141.587 133.312 141.924 134.7 142.598C136.087 143.271 137.187 144.213 138 145.422C138.812 146.631 139.308 148.058 139.486 149.703H136.513C136.355 148.474 135.958 147.463 135.324 146.671C134.69 145.858 133.887 145.253 132.916 144.857C131.965 144.461 130.894 144.262 129.705 144.262C128.417 144.262 127.287 144.49 126.316 144.946C125.345 145.382 124.532 146.007 123.878 146.819C123.244 147.612 122.758 148.534 122.421 149.584C122.104 150.635 121.946 151.774 121.946 153.003C121.946 154.172 122.104 155.282 122.421 156.333C122.758 157.383 123.254 158.315 123.908 159.127C124.582 159.94 125.414 160.584 126.405 161.06C127.396 161.516 128.556 161.744 129.884 161.744C131.747 161.744 133.312 161.278 134.581 160.346C135.849 159.415 136.622 158.067 136.9 156.303H139.873C139.675 157.79 139.169 159.147 138.357 160.376C137.564 161.605 136.454 162.586 135.027 163.319C133.62 164.053 131.905 164.419 129.884 164.419ZM150.989 164.419C149.602 164.419 148.383 164.181 147.333 163.706C146.282 163.23 145.39 162.606 144.657 161.833C143.943 161.04 143.398 160.158 143.022 159.187C142.665 158.216 142.487 157.225 142.487 156.214V155.679C142.487 154.668 142.675 153.677 143.052 152.706C143.428 151.715 143.983 150.833 144.716 150.06C145.45 149.267 146.342 148.643 147.392 148.187C148.443 147.711 149.642 147.473 150.989 147.473C152.337 147.473 153.536 147.711 154.587 148.187C155.637 148.643 156.529 149.267 157.262 150.06C157.996 150.833 158.551 151.715 158.927 152.706C159.304 153.677 159.492 154.668 159.492 155.679V156.214C159.492 157.225 159.304 158.216 158.927 159.187C158.571 160.158 158.026 161.04 157.292 161.833C156.579 162.606 155.697 163.23 154.646 163.706C153.596 164.181 152.377 164.419 150.989 164.419ZM150.989 161.863C152.179 161.863 153.189 161.605 154.022 161.09C154.874 160.554 155.518 159.841 155.954 158.949C156.41 158.057 156.638 157.056 156.638 155.946C156.638 154.817 156.41 153.806 155.954 152.914C155.499 152.022 154.844 151.318 153.992 150.803C153.16 150.288 152.159 150.03 150.989 150.03C149.84 150.03 148.839 150.288 147.987 150.803C147.134 151.318 146.48 152.022 146.025 152.914C145.569 153.806 145.341 154.817 145.341 155.946C145.341 157.056 145.559 158.057 145.995 158.949C146.451 159.841 147.095 160.554 147.927 161.09C148.78 161.605 149.8 161.863 150.989 161.863ZM163.767 163.884V148.008H166.026V154.817H165.67C165.67 153.251 165.878 151.933 166.294 150.862C166.73 149.772 167.384 148.95 168.256 148.395C169.128 147.82 170.228 147.533 171.556 147.533H171.675C173.677 147.533 175.153 148.157 176.105 149.406C177.076 150.654 177.562 152.458 177.562 154.817V163.884H174.707V154.222C174.707 152.993 174.361 152.012 173.667 151.279C172.973 150.526 172.022 150.149 170.813 150.149C169.564 150.149 168.553 150.535 167.78 151.308C167.007 152.081 166.621 153.112 166.621 154.4V163.884H163.767ZM182.784 163.884V148.008H185.043V154.817H184.686C184.686 153.251 184.894 151.933 185.311 150.862C185.747 149.772 186.401 148.95 187.273 148.395C188.145 147.82 189.245 147.533 190.573 147.533H190.692C192.694 147.533 194.17 148.157 195.121 149.406C196.093 150.654 196.578 152.458 196.578 154.817V163.884H193.724V154.222C193.724 152.993 193.377 152.012 192.684 151.279C191.99 150.526 191.039 150.149 189.83 150.149C188.581 150.149 187.57 150.535 186.797 151.308C186.024 152.081 185.638 153.112 185.638 154.4V163.884H182.784ZM208.549 164.419C207.162 164.419 205.962 164.181 204.952 163.706C203.941 163.23 203.118 162.606 202.484 161.833C201.85 161.04 201.374 160.158 201.057 159.187C200.76 158.216 200.611 157.225 200.611 156.214V155.679C200.611 154.648 200.76 153.647 201.057 152.676C201.374 151.705 201.85 150.833 202.484 150.06C203.118 149.267 203.921 148.643 204.892 148.187C205.883 147.711 207.043 147.473 208.371 147.473C210.095 147.473 211.512 147.85 212.622 148.603C213.752 149.336 214.584 150.288 215.119 151.457C215.674 152.626 215.952 153.875 215.952 155.203V156.481H201.86V154.341H213.871L213.217 155.5C213.217 154.371 213.038 153.399 212.681 152.587C212.325 151.754 211.789 151.11 211.076 150.654C210.362 150.198 209.461 149.971 208.371 149.971C207.241 149.971 206.299 150.228 205.546 150.744C204.813 151.259 204.258 151.962 203.881 152.854C203.525 153.746 203.346 154.777 203.346 155.946C203.346 157.076 203.525 158.097 203.881 159.008C204.258 159.9 204.833 160.614 205.606 161.149C206.379 161.664 207.36 161.922 208.549 161.922C209.798 161.922 210.808 161.645 211.581 161.09C212.374 160.535 212.85 159.89 213.008 159.157H215.684C215.466 160.247 215.03 161.189 214.376 161.981C213.722 162.774 212.899 163.379 211.908 163.795C210.917 164.211 209.798 164.419 208.549 164.419ZM226.812 164.419C225.445 164.419 224.255 164.181 223.245 163.706C222.254 163.23 221.431 162.596 220.777 161.803C220.123 160.99 219.627 160.099 219.29 159.127C218.973 158.156 218.815 157.185 218.815 156.214V155.679C218.815 154.668 218.973 153.677 219.29 152.706C219.627 151.735 220.123 150.862 220.777 150.089C221.451 149.297 222.283 148.662 223.274 148.187C224.265 147.711 225.425 147.473 226.753 147.473C228.081 147.473 229.27 147.721 230.32 148.216C231.391 148.712 232.243 149.416 232.877 150.327C233.531 151.219 233.898 152.28 233.977 153.508H231.242C231.103 152.517 230.647 151.695 229.874 151.041C229.101 150.367 228.061 150.03 226.753 150.03C225.623 150.03 224.682 150.288 223.928 150.803C223.175 151.318 222.61 152.022 222.234 152.914C221.857 153.806 221.669 154.817 221.669 155.946C221.669 157.036 221.857 158.037 222.234 158.949C222.61 159.841 223.175 160.554 223.928 161.09C224.701 161.605 225.663 161.863 226.812 161.863C227.704 161.863 228.477 161.704 229.131 161.387C229.785 161.07 230.31 160.644 230.707 160.108C231.103 159.573 231.341 158.969 231.42 158.295H234.155C234.096 159.544 233.729 160.624 233.055 161.535C232.401 162.447 231.529 163.161 230.439 163.676C229.369 164.172 228.16 164.419 226.812 164.419ZM244.217 164.063C243.028 164.063 241.998 163.894 241.125 163.557C240.273 163.22 239.609 162.645 239.134 161.833C238.678 161 238.45 159.881 238.45 158.473V143.192H241.185V158.83C241.185 159.682 241.413 160.346 241.869 160.822C242.344 161.278 243.008 161.506 243.861 161.506H246.655V164.063H244.217ZM235.715 150.149V148.008H246.655V150.149H235.715ZM155.113 201.419C153.131 201.419 151.437 201.072 150.03 200.379C148.642 199.685 147.522 198.783 146.67 197.673C145.818 196.563 145.193 195.364 144.797 194.076C144.401 192.768 144.202 191.509 144.202 190.3V189.646C144.202 188.338 144.401 187.03 144.797 185.722C145.213 184.414 145.848 183.225 146.7 182.154C147.552 181.084 148.662 180.222 150.03 179.568C151.397 178.914 153.032 178.587 154.935 178.587C156.877 178.587 158.542 178.924 159.93 179.598C161.317 180.271 162.417 181.213 163.23 182.422C164.042 183.631 164.538 185.058 164.716 186.703H161.743C161.585 185.474 161.188 184.463 160.554 183.671C159.92 182.858 159.117 182.253 158.146 181.857C157.194 181.461 156.124 181.262 154.935 181.262C153.647 181.262 152.517 181.49 151.546 181.946C150.575 182.382 149.762 183.007 149.108 183.819C148.474 184.612 147.988 185.534 147.651 186.584C147.334 187.635 147.175 188.774 147.175 190.003C147.175 191.172 147.334 192.282 147.651 193.333C147.988 194.383 148.484 195.315 149.138 196.127C149.811 196.94 150.644 197.584 151.635 198.06C152.626 198.516 153.785 198.744 155.113 198.744C156.976 198.744 158.542 198.278 159.811 197.346C161.079 196.415 161.852 195.067 162.13 193.303H165.103C164.904 194.79 164.399 196.147 163.586 197.376C162.794 198.605 161.684 199.586 160.257 200.319C158.849 201.053 157.135 201.419 155.113 201.419ZM176.219 201.419C174.832 201.419 173.613 201.181 172.562 200.706C171.512 200.23 170.62 199.606 169.887 198.833C169.173 198.04 168.628 197.158 168.252 196.187C167.895 195.216 167.717 194.225 167.717 193.214V192.679C167.717 191.668 167.905 190.677 168.281 189.706C168.658 188.715 169.213 187.833 169.946 187.06C170.68 186.267 171.571 185.643 172.622 185.187C173.672 184.711 174.872 184.473 176.219 184.473C177.567 184.473 178.766 184.711 179.817 185.187C180.867 185.643 181.759 186.267 182.492 187.06C183.226 187.833 183.781 188.715 184.157 189.706C184.534 190.677 184.722 191.668 184.722 192.679V193.214C184.722 194.225 184.534 195.216 184.157 196.187C183.8 197.158 183.255 198.04 182.522 198.833C181.808 199.606 180.927 200.23 179.876 200.706C178.826 201.181 177.607 201.419 176.219 201.419ZM176.219 198.863C177.408 198.863 178.419 198.605 179.252 198.09C180.104 197.554 180.748 196.841 181.184 195.949C181.64 195.057 181.868 194.056 181.868 192.946C181.868 191.817 181.64 190.806 181.184 189.914C180.728 189.022 180.074 188.318 179.222 187.803C178.39 187.288 177.389 187.03 176.219 187.03C175.07 187.03 174.069 187.288 173.217 187.803C172.364 188.318 171.71 189.022 171.254 189.914C170.799 190.806 170.571 191.817 170.571 192.946C170.571 194.056 170.789 195.057 171.225 195.949C171.68 196.841 172.325 197.554 173.157 198.09C174.009 198.605 175.03 198.863 176.219 198.863ZM188.997 206.83V185.008H191.256V191.876L190.721 191.817C190.82 190.112 191.177 188.725 191.791 187.654C192.425 186.564 193.248 185.762 194.259 185.246C195.27 184.731 196.37 184.473 197.559 184.473C198.708 184.473 199.749 184.691 200.68 185.127C201.632 185.563 202.444 186.158 203.118 186.911C203.792 187.664 204.308 188.536 204.664 189.527C205.021 190.518 205.199 191.569 205.199 192.679V193.214C205.199 194.324 205.011 195.374 204.635 196.365C204.258 197.356 203.723 198.228 203.029 198.981C202.355 199.735 201.543 200.329 200.591 200.765C199.66 201.201 198.629 201.419 197.499 201.419C196.37 201.419 195.289 201.172 194.259 200.676C193.228 200.181 192.376 199.378 191.702 198.268C191.028 197.158 190.642 195.701 190.543 193.898L191.851 196.276V206.83H188.997ZM197.053 198.922C198.124 198.922 199.055 198.674 199.848 198.179C200.641 197.663 201.255 196.96 201.691 196.068C202.127 195.156 202.345 194.116 202.345 192.946C202.345 191.757 202.127 190.717 201.691 189.825C201.255 188.933 200.641 188.239 199.848 187.744C199.055 187.228 198.124 186.971 197.053 186.971C196.102 186.971 195.22 187.189 194.407 187.625C193.595 188.041 192.941 188.655 192.445 189.468C191.97 190.261 191.732 191.222 191.732 192.352V193.719C191.732 194.809 191.98 195.741 192.475 196.514C192.971 197.287 193.625 197.881 194.437 198.298C195.25 198.714 196.122 198.922 197.053 198.922ZM208.133 207.068V204.511H210.423C211.096 204.511 211.661 204.422 212.117 204.244C212.593 204.085 212.979 203.808 213.277 203.411C213.594 203.015 213.851 202.49 214.05 201.836L219.044 185.008H221.839L216.547 202.579C216.23 203.629 215.784 204.481 215.209 205.136C214.634 205.809 213.931 206.295 213.098 206.592C212.286 206.909 211.334 207.068 210.244 207.068H208.133ZM212.979 200.527V198.149H216.428V200.527H212.979ZM212.682 200.527L207.004 185.008H209.917L215.358 200.527H212.682Z" fill="white"/>
<path d="M154.612 238.419C152.927 238.419 151.401 238.142 150.033 237.587C148.666 237.032 147.486 236.249 146.495 235.238C145.524 234.227 144.771 233.038 144.236 231.671C143.701 230.283 143.433 228.777 143.433 227.152V226.498C143.433 225.11 143.671 223.772 144.147 222.484C144.642 221.176 145.346 220.007 146.257 218.976C147.189 217.925 148.319 217.103 149.647 216.508C150.975 215.894 152.471 215.587 154.136 215.587C155.939 215.587 157.545 215.934 158.952 216.627C160.359 217.301 161.489 218.252 162.341 219.481C163.194 220.69 163.689 222.098 163.828 223.703H160.855C160.716 222.494 160.32 221.493 159.666 220.7C159.012 219.888 158.199 219.283 157.228 218.887C156.276 218.471 155.246 218.262 154.136 218.262C153.006 218.262 151.966 218.471 151.014 218.887C150.063 219.283 149.24 219.858 148.547 220.611C147.873 221.364 147.348 222.266 146.971 223.316C146.594 224.367 146.406 225.546 146.406 226.854C146.406 228.341 146.604 229.649 147.001 230.779C147.417 231.889 147.992 232.82 148.725 233.573C149.458 234.307 150.321 234.862 151.312 235.238C152.322 235.615 153.422 235.803 154.612 235.803C156.296 235.803 157.773 235.466 159.041 234.792C160.33 234.099 161.301 233.207 161.955 232.117L160.885 235.654V229.203H163.62V234.376C162.649 235.645 161.4 236.635 159.874 237.349C158.348 238.063 156.594 238.419 154.612 238.419ZM153.839 229.798V227.36H165.463V229.798H153.839ZM169.211 237.884V222.008H171.47V228.549H171.351C171.351 226.23 171.857 224.535 172.867 223.465C173.898 222.375 175.434 221.83 177.475 221.83H178.011V224.387H177C175.414 224.387 174.195 224.813 173.343 225.665C172.491 226.498 172.065 227.707 172.065 229.292V237.884H169.211ZM188.544 238.419C187.156 238.419 185.938 238.181 184.887 237.706C183.837 237.23 182.945 236.606 182.211 235.833C181.498 235.04 180.953 234.158 180.576 233.187C180.219 232.216 180.041 231.225 180.041 230.214V229.679C180.041 228.668 180.229 227.677 180.606 226.706C180.983 225.715 181.537 224.833 182.271 224.06C183.004 223.267 183.896 222.643 184.947 222.187C185.997 221.711 187.196 221.473 188.544 221.473C189.892 221.473 191.091 221.711 192.141 222.187C193.192 222.643 194.084 223.267 194.817 224.06C195.55 224.833 196.105 225.715 196.482 226.706C196.858 227.677 197.047 228.668 197.047 229.679V230.214C197.047 231.225 196.858 232.216 196.482 233.187C196.125 234.158 195.58 235.04 194.847 235.833C194.133 236.606 193.251 237.23 192.201 237.706C191.15 238.181 189.931 238.419 188.544 238.419ZM188.544 235.863C189.733 235.863 190.744 235.605 191.576 235.09C192.429 234.554 193.073 233.841 193.509 232.949C193.965 232.057 194.193 231.056 194.193 229.946C194.193 228.817 193.965 227.806 193.509 226.914C193.053 226.022 192.399 225.318 191.547 224.803C190.714 224.288 189.713 224.03 188.544 224.03C187.394 224.03 186.393 224.288 185.541 224.803C184.689 225.318 184.035 226.022 183.579 226.914C183.123 227.806 182.895 228.817 182.895 229.946C182.895 231.056 183.113 232.057 183.549 232.949C184.005 233.841 184.649 234.554 185.482 235.09C186.334 235.605 187.355 235.863 188.544 235.863ZM205.669 237.884L208.88 222.544H212.744L216.49 237.884H214.053L210.307 222.603H211.258L208.017 237.884H205.669ZM204.212 237.884V235.625H207.512V237.884H204.212ZM203.558 237.884L199.069 222.008H201.804L206.174 237.884H203.558ZM214.647 237.884V235.625H217.947V237.884H214.647ZM215.985 237.884L219.79 222.008H222.377L218.482 237.884H215.985Z" fill="url(#paint2_linear_14_278)"/>
<defs>
<linearGradient id="paint0_linear_14_278" x1="387.716" y1="169.102" x2="81.3452" y2="52.7994" gradientUnits="userSpaceOnUse">
<stop stop-color="#7DB9D6"/>
<stop offset="1" stop-color="#056FB4"/>
</linearGradient>
<linearGradient id="paint1_linear_14_278" x1="375.526" y1="308.855" x2="69.1626" y2="192.532" gradientUnits="userSpaceOnUse">
<stop stop-color="#7DB9D6"/>
<stop offset="1" stop-color="#056FB4"/>
</linearGradient>
<linearGradient id="paint2_linear_14_278" x1="354.941" y1="175.66" x2="82.4898" y2="178.818" gradientUnits="userSpaceOnUse">
<stop stop-color="#7DB9D6"/>
<stop offset="1" stop-color="#056FB4"/>
</linearGradient>
</defs>
</svg>
